<svg xmlns="http://www.w3.org/2000/svg" viewBox="0 0 800 650" width="800" height="650">
  <style>
    .dong { fill: #cbd5e1; stroke: #475569; stroke-width: 1; }
    .dong-label { font-size: 10px; fill: #1e293b; text-anchor: middle; dominant-baseline: central; pointer-events: none; font-family: -apple-system, sans-serif; font-weight: 500; }
  </style>
  <g id="dong-paths">
  <path id="dong_yonggang" class="dong" d="M639.8,470.4 L641.4,471.8 L641.7,472 L642.7,472.9 L643.3,473.4 L646.5,476 L661.8,485.5 L671.4,486 L674.4,481.7 L680.8,485 L681.2,485.2 L675,493.9 L670.9,498.4 L634.6,531 L617.6,544 L581.4,522.5 L586.9,502.1 L589.8,495.7 L601.2,477.7 L614.4,458 L639.8,470.4 Z" data-dong-id="yonggang" data-name="용강동"/>
  <path id="dong_daeheung" class="dong" d="M655.2,371.5 L653.1,372.4 L653.4,396.6 L654.2,403.5 L644.8,433.4 L644.2,433.4 L643.5,433.3 L643.2,433.4 L642.6,433.8 L642.4,434.1 L642,434.7 L640.9,436.6 L634.6,451.1 L634.4,454.2 L634.6,455 L634.6,455.3 L634.8,456.1 L639.8,470.4 L614.4,458 L608.6,451.5 L608.9,449.5 L592.5,423.9 L589.6,420.7 L587.1,418.7 L586,417.8 L583.3,416.6 L582.7,416.3 L580.9,415.5 L578.4,414.3 L573.4,410.3 L569.6,407.3 L567.4,403.1 L569.8,400.4 L588.5,386.2 L611.1,377.1 L616.5,374.9 L640.9,371.6 L655.1,370.6 L655.1,371 L655.2,371.5 Z" data-dong-id="daeheung" data-name="대흥동"/>
  <path id="dong_yeomni" class="dong" d="M674.4,481.7 L671.4,486 L661.8,485.5 L646.5,476 L643.3,473.4 L642.7,472.9 L641.7,472 L641.4,471.8 L639.8,470.4 L634.8,456.1 L634.6,455.3 L634.6,455 L634.4,454.2 L634.6,451.1 L640.9,436.6 L642,434.7 L642.4,434.1 L642.6,433.8 L643.2,433.4 L643.5,433.3 L644.2,433.4 L644.8,433.4 L654.2,403.5 L653.4,396.6 L653.1,372.4 L655.2,371.5 L668.8,370.4 L668.2,383.5 L674,386.9 L679.3,395.8 L680.9,404.2 L680.6,407.8 L680.6,408.3 L680.5,409.7 L676.4,449.5 L666.4,463.6 L663.4,467 L661.6,468.6 L662.3,474.7 L674.4,481.7 Z" data-dong-id="yeomni" data-name="염리동"/>
  <path id="dong_sinsu" class="dong" d="M614.4,458 L601.2,477.7 L589.8,495.7 L586.9,502.1 L581.4,522.5 L544.2,502.8 L529.1,501.3 L544.9,470.5 L551.7,471 L552.2,470.6 L555.2,467.8 L555.3,467.4 L559.8,452 L560.1,449.7 L561.9,435.2 L562.3,429.5 L562.3,429 L562.3,416.9 L567.4,403.1 L569.6,407.3 L573.4,410.3 L578.4,414.3 L580.9,415.5 L582.7,416.3 L583.3,416.6 L586,417.8 L587.1,418.7 L589.6,420.7 L592.5,423.9 L608.9,449.5 L608.6,451.5 L614.4,458 Z" data-dong-id="sinsu" data-name="신수동"/>
  <path id="dong_seogyo" class="dong" d="M432.1,433.8 L419.5,393.7 L400.3,366.7 L402.3,364.6 L410,362.3 L412.7,361.5 L421.9,359.5 L429.3,359.7 L442.8,359.8 L444.3,359.8 L444.7,359.8 L447,359.6 L449.7,359.2 L449.9,359.1 L450.2,359.1 L451.5,358.6 L453,357.9 L455.4,356.7 L459.3,354.7 L460.8,356.7 L467.2,365.6 L486.2,349.3 L517.3,334.5 L523.3,330 L520.2,339.9 L519,351.6 L519.8,354.7 L521.4,355.5 L522.4,356.1 L523.1,356.4 L542.4,365.5 L576.7,381.5 L585.6,385.4 L587.6,386.1 L588.5,386.2 L569.8,400.4 L548.8,389.5 L537.8,394.3 L512.4,401.2 L509.2,402.5 L503.7,409.2 L503,410.3 L502.9,410.6 L502.7,411.5 L502.9,413.4 L502.9,413.7 L502.9,413.9 L503.7,416.3 L503.9,419.9 L503.8,421.5 L501.4,423.9 L487.8,437 L483.1,440.4 L477.4,443.7 L471.3,443.1 L466.9,442.7 L464.3,442 L462.4,441.5 L455.3,439.7 L452.3,438.9 L442.5,436.3 L442.2,436 L440.6,434.4 L439.1,432.8 L437.8,431.4 L446.1,423.5 L445.7,423 L444.6,421.9 L443.6,422.9 L437.9,428.1 L432.1,433.8 Z" data-dong-id="seogyo" data-name="서교동"/>
  <path id="dong_hapjeong" class="dong" d="M432.1,433.8 L437.9,428.1 L443.6,422.9 L444.6,421.9 L445.7,423 L446.1,423.5 L437.8,431.4 L439.1,432.8 L440.6,434.4 L442.2,436 L442.5,436.3 L452.3,438.9 L455.3,439.7 L462.4,441.5 L464.3,442 L466.9,442.7 L471.3,443.1 L477.4,443.7 L473.3,452.2 L459.6,474.8 L453.3,484.7 L455.8,490.5 L456,501.9 L374.7,502.8 L356,479.6 L353.1,470.6 L334.6,447 L348.5,429.6 L360.3,417 L407.3,398.4 L419.5,393.7 L432.1,433.8 Z" data-dong-id="hapjeong" data-name="합정동"/>
  <path id="dong_mangwon1" class="dong" d="M400.3,366.7 L419.5,393.7 L407.3,398.4 L360.3,417 L348.5,429.6 L334.6,447 L278.5,419.5 L286.3,400.3 L303.9,365.6 L320.3,384 L340.9,375.8 L396.2,361.3 L400.3,366.7 Z" data-dong-id="mangwon1" data-name="망원1동"/>
  <path id="dong_mangwon2" class="dong" d="M370.2,324.6 L396.2,361.3 L340.9,375.8 L320.3,384 L303.9,365.6 L293.9,353.5 L303.3,345.8 L341.4,325.9 L354.5,319.2 L357.1,318 L363.7,316.9 L366.9,321.3 L370.2,324.6 Z" data-dong-id="mangwon2" data-name="망원2동"/>
  <path id="dong_yeonnam" class="dong" d="M523.7,329.4 L523.3,330 L517.3,334.5 L486.2,349.3 L467.2,365.6 L460.8,356.7 L459.3,354.7 L461.4,350.8 L461.7,349.8 L463,340.3 L462.8,336.5 L461.1,329.3 L459.2,323.6 L459,323.3 L457.9,323.4 L456.3,316.4 L455.9,314.6 L455,307.3 L454.1,297.8 L453,286.1 L460.3,281.9 L507.2,296.4 L509.8,297.8 L513.5,300.1 L514.4,300.7 L515.4,301.3 L516.6,302.3 L517.7,303.3 L521.2,306.6 L522,307.5 L530.7,316.5 L530,317.8 L529.8,318.2 L525.6,326 L523.7,329.4 Z" data-dong-id="yeonnam" data-name="연남동"/>
  <path id="dong_seongsan1" class="dong" d="M459.3,354.7 L455.4,356.7 L453,357.9 L451.5,358.6 L450.2,359.1 L449.9,359.1 L449.7,359.2 L447,359.6 L444.7,359.8 L444.3,359.8 L442.8,359.8 L429.3,359.7 L421.9,359.5 L412.7,361.5 L410,362.3 L402.3,364.6 L400.3,366.7 L396.2,361.3 L370.2,324.6 L365.4,316.3 L444.8,287.2 L453,286.1 L454.1,297.8 L455,307.3 L455.9,314.6 L456.3,316.4 L457.9,323.4 L459,323.3 L459.2,323.6 L461.1,329.3 L462.8,336.5 L463,340.3 L461.7,349.8 L461.4,350.8 L459.3,354.7 Z" data-dong-id="seongsan1" data-name="성산1동"/>
  <path id="dong_seongsan2" class="dong" d="M420.5,257.9 L454.3,278.1 L460.3,281.9 L453,286.1 L444.8,287.2 L365.4,316.3 L370.2,324.6 L366.9,321.3 L363.7,316.9 L357.1,318 L354.5,319.2 L341.4,325.9 L303.3,345.8 L298.7,332.9 L303.7,319.2 L304.9,315.1 L306.3,310.5 L307.4,305.7 L308.5,300.8 L306.9,289.9 L299,284.2 L293.1,280.3 L287.5,273.9 L282.1,262.8 L282.5,252.7 L288.1,237.3 L288.7,236.1 L289.8,235.4 L298,232.7 L300.6,232.7 L301.2,233.1 L301.6,233.7 L303.2,236.3 L303.8,237.2 L304.9,237.8 L306,237.7 L306.4,237.7 L318.4,235.9 L335.3,232.8 L343.3,227.8 L352.1,214.1 L373.4,231.6 L420.5,257.9 Z" data-dong-id="seongsan2" data-name="성산2동"/>
  <path id="dong_sangam" class="dong" d="M329.3,190.4 L331.9,192.7 L352.3,210.2 L360.2,199.8 L362.3,202 L352.1,214.1 L343.3,227.8 L335.3,232.8 L318.4,235.9 L306.4,237.7 L306,237.7 L304.9,237.8 L303.8,237.2 L303.2,236.3 L301.6,233.7 L301.2,233.1 L300.6,232.7 L298,232.7 L289.8,235.4 L288.7,236.1 L288.1,237.3 L282.5,252.7 L282.1,262.8 L287.5,273.9 L293.1,280.3 L299,284.2 L306.9,289.9 L308.5,300.8 L307.4,305.7 L306.3,310.5 L304.9,315.1 L303.7,319.2 L298.7,332.9 L303.3,345.8 L293.9,353.5 L303.9,365.6 L286.3,400.3 L278.5,419.5 L209.8,377.2 L153.8,344.5 L93.7,302.5 L69.8,282.9 L40.8,260.5 L30,245 L33.8,227.6 L67.3,219.1 L84.7,210.7 L106.4,210.9 L117.7,205.7 L126.8,197.7 L162.7,185.4 L182.2,184.5 L187.7,185 L190.1,180.7 L190.7,179.8 L191.4,177.8 L190.3,173.1 L184.7,162.5 L185,140.8 L191.4,123.2 L209.2,94.2 L209.7,93.6 L210.6,92.7 L222.3,83.2 L229.1,90.6 L254,117.6 L257.1,121 L270.3,134.9 L272,136.5 L273.8,138.1 L274.1,138.4 L275.8,139.8 L288.9,150.8 L309.8,163.3 L316.1,168.5 L319,171.6 L327.3,182.7 L329.3,190.4 Z" data-dong-id="sangam" data-name="상암동"/>
  <path id="dong_dohwa" class="dong" d="M719.4,509 L702.3,526.7 L696.7,532.2 L696.7,532.5 L696.7,533.6 L696.6,534.5 L696.5,534.9 L696.4,535.7 L695.5,536.9 L691.5,541 L685.3,545.3 L684.1,546 L681.6,546.8 L672.7,548.9 L661.9,551 L652.4,550 L651,550.7 L650.1,551.2 L645.9,554.6 L643.6,556.8 L640.8,566.8 L617.6,544 L634.6,531 L670.9,498.4 L675,493.9 L681.2,485.2 L719.4,509 Z" data-dong-id="dohwa" data-name="도화동"/>
  <path id="dong_seogang" class="dong" d="M569.8,400.4 L567.4,403.1 L562.3,416.9 L562.3,429 L562.3,429.5 L561.9,435.2 L560.1,449.7 L559.8,452 L555.3,467.4 L555.2,467.8 L552.2,470.6 L551.7,471 L544.9,470.5 L529.1,501.3 L544.2,502.8 L526.6,522.2 L495.7,508.9 L491.8,502.2 L456,501.9 L455.8,490.5 L453.3,484.7 L459.6,474.8 L473.3,452.2 L477.4,443.7 L483.1,440.4 L487.8,437 L501.4,423.9 L503.8,421.5 L503.9,419.9 L503.7,416.3 L502.9,413.9 L502.9,413.7 L502.9,413.4 L502.7,411.5 L502.9,410.6 L503,410.3 L503.7,409.2 L509.2,402.5 L512.4,401.2 L537.8,394.3 L548.8,389.5 L569.8,400.4 Z" data-dong-id="seogang" data-name="서강동"/>
  <path id="dong_gongdeok" class="dong" d="M759.6,416.7 L770,431.1 L768.3,438.7 L765,440.6 L763.2,439.7 L754.4,448.9 L734.4,466.8 L728.8,489.5 L728.2,496.4 L720.2,508 L719.4,509 L681.2,485.2 L680.8,485 L679.7,484 L687.8,470.5 L690.3,466.2 L691.3,466.7 L700.5,450.9 L703.3,445.7 L728.6,386 L734.9,373.1 L753.5,354.5 L763.9,360.2 L765.1,368.9 L764.3,375.1 L763.2,376.7 L757.3,384.4 L757.1,384.3 L756.9,384.1 L755.9,383.7 L755,384.2 L754.7,401.1 L755,404.3 L757.4,411.8 L757.9,413.1 L759.6,416.7 Z" data-dong-id="gongdeok" data-name="공덕동"/>
  <path id="dong_ahyeon" class="dong" d="M734.9,373.1 L728.6,386 L703.3,445.7 L700.5,450.9 L691.3,466.7 L690.3,466.2 L687.8,470.5 L679.7,484 L680.8,485 L674.4,481.7 L662.3,474.7 L661.6,468.6 L663.4,467 L666.4,463.6 L676.4,449.5 L680.5,409.7 L680.6,408.3 L680.6,407.8 L680.9,404.2 L679.3,395.8 L674,386.9 L668.2,383.5 L668.8,370.4 L689.6,369.1 L690,369.1 L698,368.4 L705.5,367.7 L709.9,366.5 L712,366.5 L718.1,366.3 L722.4,366.2 L723.9,366.1 L733.4,368.2 L734.8,371.5 L734.9,373.1 Z" data-dong-id="ahyeon" data-name="아현동"/>
  </g>
  <g id="dong-labels">
  <text class="dong-label" x="639.8" y="488.3">용강동</text>
  <text class="dong-label" x="619.7" y="417.6">대흥동</text>
  <text class="dong-label" x="655.3" y="438.7">염리동</text>
  <text class="dong-label" x="574.9" y="448.2">신수동</text>
  <text class="dong-label" x="479.2" y="393.6">서교동</text>
  <text class="dong-label" x="430.8" y="443.5">합정동</text>
  <text class="dong-label" x="353.6" y="394.3">망원1동</text>
  <text class="dong-label" x="344.8" y="341.3">망원2동</text>
  <text class="dong-label" x="489.6" y="320.7">연남동</text>
  <text class="dong-label" x="440.6" y="341.8">성산1동</text>
  <text class="dong-label" x="334.2" y="272.9">성산2동</text>
  <text class="dong-label" x="250.8" y="222.2">상암동</text>
  <text class="dong-label" x="676.2" y="535.1">도화동</text>
  <text class="dong-label" x="519.3" y="442.3">서강동</text>
  <text class="dong-label" x="738" y="427.8">공덕동</text>
  <text class="dong-label" x="693.9" y="412">아현동</text>
  </g>
</svg>